<?xml version="1.0" encoding="UTF-8"?>
<!DOCTYPE svg PUBLIC "-//W3C//DTD SVG 1.1//EN" "http://www.w3.org/Graphics/SVG/1.1/DTD/svg11.dtd">
<svg xmlns="http://www.w3.org/2000/svg" version="1.1" width="50px" height="50px" style="shape-rendering:geometricPrecision; text-rendering:geometricPrecision; image-rendering:optimizeQuality; fill-rule:evenodd; clip-rule:evenodd" xmlns:xlink="http://www.w3.org/1999/xlink">
<g><path style="opacity:0.883" fill="#000000" d="M 17.5,-0.5 C 22.1667,-0.5 26.8333,-0.5 31.5,-0.5C 35.4005,1.1227 39.0671,3.28937 42.5,6C 45.5001,9.51357 47.8334,13.3469 49.5,17.5C 49.5,22.1667 49.5,26.8333 49.5,31.5C 46.6483,39.6861 41.315,45.6861 33.5,49.5C 32.1667,49.5 30.8333,49.5 29.5,49.5C 29.6757,44.1203 29.3424,38.787 28.5,33.5C 33.0226,33.655 36.1893,31.655 38,27.5C 38.1394,21.7779 37.6394,16.1112 36.5,10.5C 28.5,13.1667 20.5,13.1667 12.5,10.5C 11.3606,16.1112 10.8606,21.7779 11,27.5C 11.7845,29.286 12.9512,30.786 14.5,32C 16.8474,32.7119 18.8474,33.8786 20.5,35.5C 19.2778,38.0894 17.2778,38.9228 14.5,38C 13.4957,35.202 11.829,34.0354 9.5,34.5C 11.6313,38.6537 14.9647,40.6537 19.5,40.5C 19.5,43.5 19.5,46.5 19.5,49.5C 18.1667,49.5 16.8333,49.5 15.5,49.5C 7.68501,45.6861 2.35167,39.6861 -0.5,31.5C -0.5,26.8333 -0.5,22.1667 -0.5,17.5C 1.1227,13.5995 3.28937,9.93286 6,6.5C 9.51357,3.4999 13.3469,1.16657 17.5,-0.5 Z"/></g>
</svg>
