<?xml version="1.0" encoding="UTF-8"?>
<!DOCTYPE svg PUBLIC "-//W3C//DTD SVG 1.1//EN" "http://www.w3.org/Graphics/SVG/1.1/DTD/svg11.dtd">
<svg xmlns="http://www.w3.org/2000/svg" version="1.1" width="50px" height="50px" style="shape-rendering:geometricPrecision; text-rendering:geometricPrecision; image-rendering:optimizeQuality; fill-rule:evenodd; clip-rule:evenodd" xmlns:xlink="http://www.w3.org/1999/xlink">
<g><path style="opacity:0.959" fill="#fdbb00" d="M 49.5,7.5 C 49.5,10.1667 49.5,12.8333 49.5,15.5C 45.8333,18.1667 42.1667,20.8333 38.5,23.5C 38.5,18.5 38.5,13.5 38.5,8.5C 41.8492,4.99894 45.5159,4.66561 49.5,7.5 Z"/></g>
<g><path style="opacity:0.942" fill="#f93c2c" d="M 38.5,8.5 C 38.5,13.5 38.5,18.5 38.5,23.5C 38.1667,24.1667 37.8333,24.8333 37.5,25.5C 33.3699,28.7368 29.0366,31.7368 24.5,34.5C 20.312,31.2435 15.9786,28.2435 11.5,25.5C 7.98031,21.7192 3.98031,18.3858 -0.5,15.5C -0.5,12.8333 -0.5,10.1667 -0.5,7.5C 1.83574,5.60929 4.5024,5.10929 7.5,6C 13.0261,10.3597 18.6928,14.5264 24.5,18.5C 29.1959,15.1572 33.8626,11.8238 38.5,8.5 Z"/></g>
<g><path style="opacity:0.987" fill="#0f83f4" d="M -0.5,15.5 C 3.98031,18.3858 7.98031,21.7192 11.5,25.5C 11.5,31.5 11.5,37.5 11.5,43.5C 7.39977,43.7633 3.39977,43.4299 -0.5,42.5C -0.5,33.5 -0.5,24.5 -0.5,15.5 Z"/></g>
<g><path style="opacity:0.999" fill="#05a84a" d="M 49.5,15.5 C 49.5,24.5 49.5,33.5 49.5,42.5C 45.6002,43.4299 41.6002,43.7633 37.5,43.5C 37.5,37.5 37.5,31.5 37.5,25.5C 37.8333,24.8333 38.1667,24.1667 38.5,23.5C 42.1667,20.8333 45.8333,18.1667 49.5,15.5 Z"/></g>
</svg>
