<?xml version="1.0" encoding="UTF-8"?>
<!DOCTYPE svg PUBLIC "-//W3C//DTD SVG 1.1//EN" "http://www.w3.org/Graphics/SVG/1.1/DTD/svg11.dtd">
<svg xmlns="http://www.w3.org/2000/svg" version="1.1" width="50px" height="50px" style="shape-rendering:geometricPrecision; text-rendering:geometricPrecision; image-rendering:optimizeQuality; fill-rule:evenodd; clip-rule:evenodd" xmlns:xlink="http://www.w3.org/1999/xlink">
<g><path style="opacity:0.97" fill="#037ab9" d="M 17.5,-0.5 C 22.1667,-0.5 26.8333,-0.5 31.5,-0.5C 40.5,2.5 46.5,8.5 49.5,17.5C 49.5,22.1667 49.5,26.8333 49.5,31.5C 46.5,40.5 40.5,46.5 31.5,49.5C 26.8333,49.5 22.1667,49.5 17.5,49.5C 8.5,46.5 2.5,40.5 -0.5,31.5C -0.5,26.8333 -0.5,22.1667 -0.5,17.5C 2.5,8.5 8.5,2.5 17.5,-0.5 Z"/></g>
<g><path style="opacity:1" fill="#dee8ed" d="M 12.5,10.5 C 14.1992,10.3398 15.8659,10.5065 17.5,11C 18.8133,14.692 17.4799,16.3587 13.5,16C 11.3652,14.4443 11.0319,12.6109 12.5,10.5 Z"/></g>
<g><path style="opacity:1" fill="#eaeef0" d="M 21.5,36.5 C 21.5,30.8333 21.5,25.1667 21.5,19.5C 23.6208,19.3253 25.6208,19.6586 27.5,20.5C 31.9117,17.4299 35.745,18.0966 39,22.5C 39.4992,27.1548 39.6658,31.8215 39.5,36.5C 37.5,36.5 35.5,36.5 33.5,36.5C 33.6655,32.4862 33.4988,28.4862 33,24.5C 31.3333,23.1667 29.6667,23.1667 28,24.5C 27.5012,28.4862 27.3345,32.4862 27.5,36.5C 25.5,36.5 23.5,36.5 21.5,36.5 Z"/></g>
<g><path style="opacity:1" fill="#74b3d3" d="M 17.5,36.5 C 17.5,30.8333 17.5,25.1667 17.5,19.5C 15.8333,19.5 14.1667,19.5 12.5,19.5C 12.5,25.1667 12.5,30.8333 12.5,36.5C 11.5104,30.69 11.1771,24.69 11.5,18.5C 13.8333,18.5 16.1667,18.5 18.5,18.5C 18.8229,24.69 18.4896,30.69 17.5,36.5 Z"/></g>
<g><path style="opacity:1" fill="#f0f2f1" d="M 17.5,36.5 C 15.8333,36.5 14.1667,36.5 12.5,36.5C 12.5,30.8333 12.5,25.1667 12.5,19.5C 14.1667,19.5 15.8333,19.5 17.5,19.5C 17.5,25.1667 17.5,30.8333 17.5,36.5 Z"/></g>
<g><path style="opacity:1" fill="#5fa7ce" d="M 27.5,20.5 C 25.6208,19.6586 23.6208,19.3253 21.5,19.5C 21.5,25.1667 21.5,30.8333 21.5,36.5C 20.5104,30.69 20.1771,24.69 20.5,18.5C 23.3878,17.9898 25.7211,18.6565 27.5,20.5 Z"/></g>
</svg>
